<?xml version="1.0" encoding="UTF-8" standalone="no"?>
<svg
   xmlns:dc="http://purl.org/dc/elements/1.1/"
   xmlns:cc="http://creativecommons.org/ns#"
   xmlns:rdf="http://www.w3.org/1999/02/22-rdf-syntax-ns#"
   xmlns:svg="http://www.w3.org/2000/svg"
   xmlns="http://www.w3.org/2000/svg"
   xmlns:sodipodi="http://sodipodi.sourceforge.net/DTD/sodipodi-0.dtd"
   xmlns:inkscape="http://www.inkscape.org/namespaces/inkscape"
   viewBox="0 0 547.36667 470.96665"
   height="470.96664"
   width="547.3667"
   xml:space="preserve"
   id="svg2"
   version="1.1"
   sodipodi:docname="sci.svg"
   inkscape:version="0.92.2 (5c3e80d, 2017-08-06)"><sodipodi:namedview
     pagecolor="#ffffff"
     bordercolor="#666666"
     borderopacity="1"
     objecttolerance="10"
     gridtolerance="10"
     guidetolerance="10"
     inkscape:pageopacity="0"
     inkscape:pageshadow="2"
     inkscape:window-width="1920"
     inkscape:window-height="1005"
     id="namedview2461"
     showgrid="false"
     fit-margin-top="0"
     fit-margin-left="0"
     fit-margin-right="0"
     fit-margin-bottom="0"
     inkscape:zoom="1"
     inkscape:cx="330.14631"
     inkscape:cy="338.90558"
     inkscape:window-x="0"
     inkscape:window-y="25"
     inkscape:window-maximized="1"
     inkscape:current-layer="svg2" /><metadata
     id="metadata8"><rdf:RDF><cc:Work
         rdf:about=""><dc:format>image/svg+xml</dc:format><dc:type
           rdf:resource="http://purl.org/dc/dcmitype/StillImage" /><dc:title></dc:title></cc:Work></rdf:RDF></metadata><defs
     id="defs6"><clipPath
       id="clipPath18"
       clipPathUnits="userSpaceOnUse"><path
         style="clip-rule:evenodd"
         id="path16"
         d="M 0,-0.2 H 793.6 V 595 H 0 Z"
         inkscape:connector-curvature="0" /></clipPath><clipPath
       id="clipPath32"
       clipPathUnits="userSpaceOnUse"><path
         id="path30"
         d="M 175.9,248.4 H 419.7 V 357.2 H 175.9 Z"
         inkscape:connector-curvature="0" /></clipPath><clipPath
       id="clipPath36"
       clipPathUnits="userSpaceOnUse"><path
         id="path34"
         d="M 176.3,248.8 H 419.4 V 356.9 H 176.3 Z"
         inkscape:connector-curvature="0" /></clipPath><clipPath
       id="clipPath70"
       clipPathUnits="userSpaceOnUse"><path
         id="path68"
         d="M 176.3,250.6 H 419.4 V 358.7 H 176.3 Z"
         inkscape:connector-curvature="0" /></clipPath><clipPath
       id="clipPath230"
       clipPathUnits="userSpaceOnUse"><path
         id="path228"
         d="M 234.7,250.3 H 418.2 V 492.9 H 234.7 Z"
         inkscape:connector-curvature="0" /></clipPath><clipPath
       id="clipPath234"
       clipPathUnits="userSpaceOnUse"><path
         id="path232"
         d="M 235,250.7 H 417.7 V 492.5 H 235 Z"
         inkscape:connector-curvature="0" /></clipPath><clipPath
       id="clipPath268"
       clipPathUnits="userSpaceOnUse"><path
         id="path266"
         d="M 235,252.5 H 417.7 V 494.3 H 235 Z"
         inkscape:connector-curvature="0" /></clipPath><clipPath
       id="clipPath398"
       clipPathUnits="userSpaceOnUse"><path
         id="path396"
         d="M 349.1,270.4 H 593.9 V 448.7 H 349.1 Z"
         inkscape:connector-curvature="0" /></clipPath><clipPath
       id="clipPath402"
       clipPathUnits="userSpaceOnUse"><path
         id="path400"
         d="m 349.5,270.8 h 244 v 177.6 h -244 z"
         inkscape:connector-curvature="0" /></clipPath><clipPath
       id="clipPath436"
       clipPathUnits="userSpaceOnUse"><path
         id="path434"
         d="m 349.5,272.6 h 244 v 177.6 h -244 z"
         inkscape:connector-curvature="0" /></clipPath><clipPath
       id="clipPath582"
       clipPathUnits="userSpaceOnUse"><path
         id="path580"
         d="M 372.6,128.7 H 576.3 V 351 H 372.6 Z"
         inkscape:connector-curvature="0" /></clipPath><clipPath
       id="clipPath586"
       clipPathUnits="userSpaceOnUse"><path
         id="path584"
         d="M 373,129 H 576 V 350.6 H 373 Z"
         inkscape:connector-curvature="0" /></clipPath><clipPath
       id="clipPath620"
       clipPathUnits="userSpaceOnUse"><path
         id="path618"
         d="M 373,130.9 H 576 V 352.5 H 373 Z"
         inkscape:connector-curvature="0" /></clipPath><clipPath
       id="clipPath756"
       clipPathUnits="userSpaceOnUse"><path
         id="path754"
         d="M 235.7,146 H 447.2 V 321.5 H 235.7 Z"
         inkscape:connector-curvature="0" /></clipPath><clipPath
       id="clipPath760"
       clipPathUnits="userSpaceOnUse"><path
         id="path758"
         d="M 236.1,146.4 H 446.9 V 321.1 H 236.1 Z"
         inkscape:connector-curvature="0" /></clipPath><clipPath
       id="clipPath794"
       clipPathUnits="userSpaceOnUse"><path
         id="path792"
         d="M 236.1,148.2 H 446.9 V 322.9 H 236.1 Z"
         inkscape:connector-curvature="0" /></clipPath></defs><g
     id="g4143"
     transform="translate(118.25947,385.21666)"><path
       inkscape:connector-curvature="0"
       d="m -117.50947,-142.86667 v 0 l 0.4,-3.06667 0.93333,-2.93333 1.2,-2.93333 1.73334,-2.8 2,-2.8 2.53333,-2.66667 2.8,-2.66667 3.33333,-2.53333 3.600004,-2.4 4,-2.4 4.399999,-2.26667 4.666667,-2.13333 5.066667,-2 5.333333,-2 5.733333,-1.73333 6,-1.73334 6.133333,-1.46666 6.533333,-1.46667 6.8,-1.2 7.066666,-1.06667 7.066667,-1.06666 7.466666,-0.66667 7.6,-0.8 7.6,-0.4 7.866662,-0.4 8,-0.26667 h 8 l 8.13334,0.13334 8.26666,0.26666 8.13334,0.4 8.26666,0.53334 v 0 l 8.4,0.8 8.4,0.93333 8.4,1.06667 8.4,1.2 8.13334,1.33333 8,1.46667 8,1.73333 7.73333,1.86667 7.46666,1.86666 7.33334,2 7.2,2.26667 6.8,2.26667 6.53333,2.4 6.4,2.53333 6,2.66667 5.6,2.66666 5.33333,2.8 4.93334,2.8 4.66666,2.93334 4.13334,3.06666 3.86666,3.06667 3.46667,3.06667 3.06667,3.06666 2.53333,3.2 2.13333,3.06667 1.86667,3.2 1.2,3.2 0.93333,3.2 0.4,3.06667 v 3.06666 0 l -0.53333,3.2 -0.93333,2.93334 -1.33334,3.06666 -1.73333,2.93334 -2.26667,2.8 -2.66666,2.8 -3.06667,2.66666 -3.46667,2.66667 -3.86666,2.4 -4.26667,2.53333 -4.53333,2.26667 -5.06667,2.13333 -5.33333,2.13334 -5.73334,1.86666 -6,1.73334 -6.26666,1.73333 -6.66667,1.46667 -6.8,1.33333 -7.2,1.2 -7.33333,1.06667 -7.6,0.93333 -7.73333,0.66667 -7.86667,0.66666 -8.13333,0.4 -8.13334,0.13334 -8.4,0.13333 -8.4,-0.13333 -8.4,-0.26667 -8.53333,-0.4 -8.4,-0.53333 v 0 l -8.53333,-0.8 -8.4,-0.93334 -8.4,-1.06666 -8.26667,-1.2 -8.133332,-1.33334 -8.133333,-1.6 -7.866667,-1.6 -7.733333,-1.86666 -7.6,-1.86667 -7.333333,-2 -7.066666,-2.26667 -6.933333,-2.26666 -6.533334,-2.4 -6.266666,-2.53334 -6,-2.66666 -5.733333,-2.66667 -5.2,-2.8 -5.066667,-2.93333 -4.533333,-2.8 -4.266666,-3.06667 -3.733334,-3.06667 -3.46667,-3.06666 -3.06666,-3.06667 -2.53334,-3.2 -2.26666,-3.2 -1.73334,-3.06667 -1.33333,-3.2 -0.8,-3.2 -0.4,-3.06666 z"
       style="fill:#f2f2f2;fill-opacity:1;stroke:#505c64;stroke-width:1.5;stroke-linecap:butt;stroke-linejoin:round;stroke-miterlimit:10;stroke-dasharray:none;stroke-opacity:1"
       id="path80" /><text
       y="-153.05559"
       x="13.391164"
       transform="rotate(4.4995135)"
       style="font-style:normal;font-variant:normal;font-weight:normal;font-stretch:normal;font-size:24px;font-family:'Noto Sans';-inkscape-font-specification:'Noto Sans, Normal';font-variant-ligatures:normal;font-variant-caps:normal;font-variant-numeric:normal;font-feature-settings:normal;text-align:center;writing-mode:lr-tb;text-anchor:middle;fill:#000000;fill-opacity:1;fill-rule:nonzero;stroke:none;stroke-width:1.33332264"
       id="text94"><tspan
         y="-153.05559"
         x="13.391164"
         id="tspan4132"
         sodipodi:role="line">Domain spesific</tspan><tspan
         y="-123.05559"
         x="13.391164"
         id="tspan4134"
         sodipodi:role="line">knowledge &amp;</tspan><tspan
         y="-93.055588"
         x="13.391164"
         id="tspan4136"
         sodipodi:role="line">practises</tspan></text>
</g><g
     id="g4156"
     transform="translate(384.12614,-43.98334)"><path
       inkscape:connector-curvature="0"
       d="m -305.64281,53.000006 v 0 l 2.4,-2 2.8,-1.866666 3.06667,-1.466667 3.33333,-1.2 3.46667,-0.933333 3.86667,-0.533334 4,-0.266666 4.4,0.133333 4.53333,0.4 4.66667,0.666667 4.8,1.066666 5.2,1.466667 5.2,1.6 5.46666,2 5.6,2.266666 5.6,2.533334 5.86667,2.933333 5.86667,3.066667 6,3.466666 6.13333,3.733333 6.13333,3.866667 6,4.266667 6.26667,4.399999 6.13333,4.666667 6.13333,4.8 6.13334,5.066666 6.13333,5.200002 6,5.46666 6,5.6 5.86667,5.6 5.86666,5.86667 v 0 l 5.73334,6.13333 5.73333,6.26667 5.46667,6.4 5.46666,6.4 5.2,6.53333 4.93334,6.4 4.8,6.66667 4.4,6.4 4.4,6.53333 3.999996,6.53334 3.733333,6.4 3.6,6.26666 3.2,6.4 2.933333,6.13334 2.666667,6 2.266666,5.86666 2,5.73333 1.733334,5.6 1.333333,5.33334 0.933333,5.2 0.8,4.93333 0.266667,4.8 v 4.4 l -0.266667,4.26667 -0.666667,4 -0.933333,3.73333 -1.2,3.33333 -1.733333,3.2 -1.866667,2.8 -2.266666,2.4 v 0 l -2.666667,2.26667 -2.8,1.86667 -3.2,1.46666 -3.466666,1.2 -3.733334,0.8 -3.999999,0.53334 -4.133333,0.13333 -4.53333,-0.13333 -4.66667,-0.53334 -4.93333,-0.8 -5.2,-1.2 -5.33334,-1.6 -5.46666,-1.86666 -5.73334,-2.13334 -5.73333,-2.53333 -6,-2.8 -6,-3.06667 -6.26667,-3.46666 -6.13333,-3.73334 -6.26667,-3.86666 -6.4,-4.26667 -6.4,-4.53333 -6.4,-4.8 -6.39999,-4.93334 -6.26667,-5.2 -6.26667,-5.33333 -6.26666,-5.6 -6.26667,-5.73333 -6,-5.86667 -6,-6 v 0 l -5.73333,-6.13333 -5.73334,-6.26667 -5.6,-6.4 -5.33333,-6.4 -5.2,-6.53333 -4.93333,-6.4 -4.8,-6.53333 -4.53334,-6.53334 -4.26666,-6.53333 -4,-6.53333 -3.86667,-6.4 -3.46667,-6.4 -3.2,-6.13334 -2.93333,-6.13333 -2.66667,-6.13333 -2.26666,-5.86667 -2,-5.73333 -1.73334,-5.6 -1.33333,-5.333335 -1.06667,-5.2 -0.66666,-4.933333 -0.26667,-4.8 -0.13333,-4.4 0.4,-4.266666 0.66666,-4 0.8,-3.733333 1.33334,-3.333334 1.6,-3.2 2,-2.8 z"
       style="fill:#d80000;fill-opacity:0.56470588;stroke:#505c64;stroke-width:1.5;stroke-linecap:butt;stroke-linejoin:round;stroke-miterlimit:10;stroke-dasharray:none;stroke-opacity:1"
       id="path278" /><text
       y="253.76216"
       x="-20.419052"
       transform="rotate(45.899864)"
       style="font-style:normal;font-variant:normal;font-weight:normal;font-stretch:normal;font-size:24px;font-family:'Noto Sans';-inkscape-font-specification:'Noto Sans, Normal';font-variant-ligatures:normal;font-variant-caps:normal;font-variant-numeric:normal;font-feature-settings:normal;text-align:center;writing-mode:lr-tb;text-anchor:middle;fill:#000000;fill-opacity:1;fill-rule:nonzero;stroke:none;stroke-width:1.33332467"
       id="text292"><tspan
         style="stroke-width:1.33332467"
         y="253.76216"
         x="-20.419052"
         id="tspan2244"
         sodipodi:role="line">Parallel programming</tspan><tspan
         style="stroke-width:1.33332467"
         y="283.76215"
         x="-20.419052"
         id="tspan2246"
         sodipodi:role="line">skills</tspan></text>
</g><g
     id="g4130"
     transform="translate(-306.20719,190.81665)"><path
       inkscape:connector-curvature="0"
       d="m 604.29053,46.866668 v 0 l -2,-2.533333 -1.73333,-2.8 -1.33334,-3.2 -0.93333,-3.466666 -0.66667,-3.733334 -0.4,-3.866666 0.13334,-4.266667 0.4,-4.4 0.66666,-4.666666 1.06667,-4.8 1.46667,-5.0666665 1.73333,-5.1999999 2.13333,-5.4666665 2.4,-5.4666661 2.8,-5.733334 3.06667,-5.866666 3.33333,-5.866667 3.73333,-6 4,-6.133333 4.13334,-6.133333 4.53333,-6.133333 4.8,-6.133333 5.06667,-6.266667 5.2,-6.133333 5.33333,-6.266666 5.73333,-6 5.73334,-6.133334 6,-5.866666 6.13333,-5.866662 6.26667,-5.86667 v 0 l 6.4,-5.6 6.4,-5.46667 6.66666,-5.33333 6.53334,-5.2 6.66666,-4.93333 6.66667,-4.8 6.66667,-4.53334 6.66666,-4.4 6.66667,-4 6.66666,-3.86666 6.53334,-3.6 6.4,-3.33334 6.4,-3.06666 6.13333,-2.66667 6.13333,-2.53333 6,-2.13334 5.73334,-1.86666 5.6,-1.46667 5.33333,-1.2 5.2,-0.93333 4.93333,-0.53334 4.8,-0.26666 h 4.4 l 4.26667,0.4 3.73333,0.8 3.73334,0.93333 3.33333,1.46667 2.93333,1.6 2.66667,2 2.4,2.26666 v 0 l 2,2.66667 1.6,2.8 1.46667,3.2 0.93333,3.46667 0.66667,3.6 0.4,4 -0.13334,4.26666 -0.4,4.4 -0.66666,4.66667 -1.2,4.8 -1.33334,5.06667 -1.73333,5.2 -2.13333,5.46666 -2.4,5.46667 -2.8,5.73333 -3.06667,5.73334 -3.33333,5.999995 -3.73334,6 -4,6.133333 -4.13333,6 -4.53333,6.266667 -4.8,6.133333 -4.93334,6.133333 -5.33333,6.266667 -5.33333,6.133333 -5.73334,6.133333 -5.73333,6 -6,6 -6.13333,5.866666 -6.26667,5.733333 v 0 l -6.4,5.6000001 -6.4,5.4666666 -6.53333,5.3333332 -6.66667,5.1999998 -6.66666,5.0666663 -6.66667,4.666667 -6.66667,4.533333 -6.66666,4.4 -6.66667,4 -6.66667,3.866666 -6.4,3.6 -6.53333,3.333334 -6.4,3.066666 -6.13333,2.666667 -6.13334,2.533333 -6,2.133333 -5.73333,1.866667 -5.6,1.466667 -5.33333,1.333333 -5.2,0.8 -4.93334,0.666666 -4.66666,0.266667 -4.53334,-0.133333 -4.13333,-0.4 -3.86667,-0.666667 -3.6,-1.066666 -3.33333,-1.333334 -3.06666,-1.733333 -2.66667,-1.866667 z"
       style="fill:#cecece;fill-opacity:0.58823529;stroke:#505c64;stroke-width:1.5;stroke-linecap:butt;stroke-linejoin:round;stroke-miterlimit:10;stroke-dasharray:none;stroke-opacity:1"
       id="path446" /><text
       transform="rotate(-42.000159)"
       style="font-style:normal;font-variant:normal;font-weight:normal;font-stretch:normal;font-size:24px;font-family:'Noto Sans';-inkscape-font-specification:'Noto Sans, Normal';font-variant-ligatures:normal;font-variant-caps:normal;font-variant-numeric:normal;font-feature-settings:normal;text-align:center;writing-mode:lr-tb;text-anchor:middle;fill:#000000;fill-opacity:1;fill-rule:nonzero;stroke:none;stroke-width:1.33332801"
       id="text460"
       x="584.04364"
       y="417.15082"><tspan
         style="stroke-width:1.33332801"
         sodipodi:role="line"
         id="tspan3256"
         x="584.04364"
         y="417.15082">Data pre- &amp;</tspan><tspan
         style="stroke-width:1.33332801"
         sodipodi:role="line"
         id="tspan3258"
         x="584.04364"
         y="447.15082">postprocessing skills</tspan></text>
</g><g
     id="g4150"
     transform="translate(-380.60718,70.35)"><path
       inkscape:connector-curvature="0"
       d="m 660.95718,155.2 v 0 l 2.13333,-2.4 2.53334,-2.26667 2.8,-1.86666 3.2,-1.73334 3.6,-1.33333 3.73333,-1.06667 4.13333,-0.8 4.4,-0.4 4.66667,-0.13333 h 5.06667 l 5.2,0.53333 5.46666,0.66667 5.73334,1.06667 5.86666,1.33333 6.13334,1.6 6.26666,1.86667 6.53334,2.13333 6.53333,2.53333 6.8,2.66667 6.8,3.06667 6.93333,3.2 6.93333,3.46666 7.06667,3.73334 7.06667,3.86666 7.06666,4.13334 7.06667,4.4 7.06667,4.53333 7.06666,4.8 6.93334,4.8 6.8,5.06666 v 0 l 6.8,5.2 6.53333,5.2 6.53333,5.46667 6.4,5.46667 6.13334,5.6 6,5.6 5.73333,5.73333 5.6,5.73333 5.2,5.73334 5.06667,5.73333 4.8,5.73333 4.4,5.6 4.26666,5.73334 3.86667,5.6 3.6,5.46666 3.33333,5.46667 2.8,5.33333 2.66667,5.06667 2.13333,5.06667 2,4.93333 1.46667,4.8 1.2,4.53333 0.8,4.4 0.4,4.13333 v 4 l -0.26667,3.73334 -0.8,3.46666 -0.93333,3.33334 -1.46667,2.93333 -1.86667,2.8 v 0 l -2.13333,2.4 -2.53333,2.26667 -2.8,2 -3.06667,1.6 -3.6,1.33333 -3.73333,1.06667 -4.26667,0.8 -4.4,0.4 -4.66666,0.26666 -4.93334,-0.13333 -5.2,-0.53333 -5.6,-0.66667 -5.6,-1.06667 -6,-1.2 -6.13333,-1.6 -6.26667,-2 -6.4,-2.13333 -6.53333,-2.53333 -6.8,-2.66667 -6.8,-2.93333 -6.93333,-3.33334 -6.93334,-3.33333 -7.06666,-3.73333 -7.06667,-4 -7.06667,-4.13334 -7.2,-4.39999 -7.06666,-4.53334 -6.93334,-4.66666 -6.93333,-4.93334 -6.8,-4.93333 V 302.8 l -6.8,-5.2 -6.53333,-5.2 -6.53333,-5.46667 -6.4,-5.46667 -6.13334,-5.6 -6,-5.6 -5.73333,-5.73333 -5.46667,-5.6 -5.33333,-5.73333 -5.06667,-5.86667 -4.8,-5.6 -4.53333,-5.73333 -4.13333,-5.6 -3.86667,-5.6 -3.6,-5.6 -3.33333,-5.46667 -2.93334,-5.2 -2.53333,-5.2 -2.26667,-5.06667 -1.86666,-4.93333 -1.46667,-4.66666 -1.2,-4.53334 -0.8,-4.4 -0.4,-4.26666 V 171.6 l 0.26667,-3.86667 0.66666,-3.46666 1.06667,-3.2 L 659.22385,158 Z"
       style="fill:#da0000;fill-opacity:0.58823529;stroke:#505c64;stroke-width:1.5;stroke-linecap:butt;stroke-linejoin:round;stroke-miterlimit:10;stroke-dasharray:none;stroke-opacity:1"
       id="path630" /><text
       y="-295.83484"
       x="779.96783"
       transform="rotate(36.799881)"
       style="font-style:normal;font-variant:normal;font-weight:normal;font-stretch:normal;font-size:24px;font-family:'Noto Sans';-inkscape-font-specification:'Noto Sans, Normal';font-variant-ligatures:normal;font-variant-caps:normal;font-variant-numeric:normal;font-feature-settings:normal;text-align:center;writing-mode:lr-tb;text-anchor:middle;fill:#000000;fill-opacity:1;fill-rule:nonzero;stroke:none;stroke-width:1.33332896"
       id="text644"><tspan
         style="stroke-width:1.33332896"
         y="-295.83484"
         x="779.96783"
         id="tspan3150"
         sodipodi:role="line">Software</tspan><tspan
         style="stroke-width:1.33332896"
         y="-265.83484"
         x="779.96783"
         id="tspan3152"
         sodipodi:role="line">development</tspan><tspan
         style="stroke-width:1.33332896"
         y="-235.83484"
         x="779.96783"
         id="tspan3154"
         sodipodi:role="line">practises</tspan></text>
</g><g
     id="g4162"
     transform="translate(371.85948,-86.98334)"
     style="opacity:1"><path
       inkscape:connector-curvature="0"
       d="m -245.64281,550.26666 v 0 l -2.26666,-2.13334 -2,-2.53333 -1.73334,-2.93333 -1.46666,-3.06667 -1.2,-3.33333 -0.93334,-3.6 -0.66666,-4 -0.4,-4 v -4.4 l 0.26666,-4.53334 0.53334,-4.8 0.8,-4.93333 1.06666,-5.2 1.33334,-5.2 1.6,-5.46667 2,-5.6 2.13333,-5.73333 2.4,-5.86667 2.66667,-5.86666 2.93333,-6 3.2,-6 3.46667,-6 3.6,-6.13333 3.86666,-6.13334 4,-6 4.26667,-6.13333 4.4,-6 4.53333,-6 4.8,-5.86667 4.8,-5.73333 v 0 l 5.06667,-5.73333 5.06667,-5.46667 5.2,-5.46667 5.33333,-5.2 5.33333,-5.06666 5.33334,-4.93334 5.46666,-4.66666 5.6,-4.53334 5.46667,-4.26666 5.46667,-4 5.46666,-3.86667 5.33333,-3.46667 5.46667,-3.33333 5.33333,-2.93333 5.2,-2.8 5.2,-2.4 5.06667,-2.13334 4.93333,-1.86666 4.8,-1.46667 4.666666,-1.2 4.4,-0.93333 4.266667,-0.53333 4.133333,-0.26667 h 4 l 3.733333,0.4 3.466667,0.66666 3.333333,0.93334 2.933333,1.33333 2.8,1.73333 2.666667,1.86667 h -0.133333 l 2.4,2.26667 1.999999,2.53333 1.733334,2.8 1.466666,3.06667 1.2,3.33333 0.933334,3.73333 0.666666,3.86667 0.266667,4.13333 0.133333,4.26667 -0.266666,4.66667 -0.533334,4.66666 -0.8,4.93334 -1.066666,5.2 -1.333334,5.33333 -1.6,5.46667 -2,5.6 -2.133333,5.73333 -2.4,5.73333 -2.666666,5.86667 -2.933334,6 -3.2,6 -3.466666,6.13333 -3.6,6.13334 -3.866667,6 -3.999999,6.13333 -4.266667,6 -4.4,6 -4.533333,6 -4.66667,5.86666 -4.93333,5.73334 v 0 l -5.06667,5.73333 -5.06666,5.46667 -5.2,5.46666 -5.33333,5.2 -5.33334,5.06667 -5.46666,4.93333 -5.33333,4.66667 -5.46667,4.53333 -5.6,4.26667 -5.46667,4 -5.46666,3.86667 -5.46667,3.46666 -5.33333,3.33334 -5.33334,2.93333 -5.2,2.8 -5.2,2.4 -5.06666,2.13333 -4.93334,1.86667 -4.8,1.46667 -4.53333,1.2 -4.53333,0.93333 -4.26667,0.66667 -4.13333,0.13333 h -4 l -3.6,-0.4 -3.6,-0.66667 -3.2,-0.93333 -3.06667,-1.33333 -2.93333,-1.6 z"
       style="opacity:1;fill:#dadaad;fill-opacity:0.58823529;stroke:#505c64;stroke-width:1.5;stroke-linecap:butt;stroke-linejoin:round;stroke-miterlimit:4;stroke-dasharray:none;stroke-opacity:1"
       id="path804" /><text
       y="166.41634"
       x="-438.74429"
       transform="rotate(-49.199836)"
       style="font-style:normal;font-variant:normal;font-weight:normal;font-stretch:normal;font-size:23.99999809px;font-family:'Noto Sans';-inkscape-font-specification:'Noto Sans, Normal';font-variant-ligatures:normal;font-variant-caps:normal;font-variant-numeric:normal;font-feature-settings:normal;text-align:center;writing-mode:lr-tb;text-anchor:middle;fill:#000000;fill-opacity:1;fill-rule:nonzero;stroke:none;stroke-width:1.33332765"
       id="text822"><tspan
         style="stroke-width:1.33332765"
         y="166.41634"
         x="-438.74429"
         id="tspan3199"
         sodipodi:role="line">Infrastructure</tspan><tspan
         style="stroke-width:1.33332765"
         y="196.41634"
         x="-438.74429"
         id="tspan3201"
         sodipodi:role="line">awareness</tspan></text>
</g></svg>